# xmcd
#
# Track frame offsets: 
#        150
#        9852
#        26995
#        40823
#        59742
#        76590
#        90554
#        109576
#        123822
#        138430
#        154537
#        170086
#        185059
#
# Disc length: 2732 seconds
#
# Revision: 0
# Processed by: cddbd v1.5.2PL0 Copyright (c) Steve Scherf et al.
# Submitted via: ExactAudioCopyFreeDBPlugin 1.0
#
DISCID=9f0aaa0d
DTITLE=Billy The Fridge - Old Fashioned
DYEAR=2012
DGENRE=Hip-Hop
TTITLE0=Feature Presentation
TTITLE1=8-Ton Gorilla
TTITLE2=Dumb
TTITLE3=Jokes On You ft. Andy Milonakis
TTITLE4=Brown Bag
TTITLE5=Thirsty ft. Grynch
TTITLE6=Seattle Love Story
TTITLE7=Just A Bill
TTITLE8=Forever Alone
TTITLE9=Hustlin' Scufflin' ft. Ricky Pharoe
TTITLE10=Workaholic
TTITLE11=Gangster Dick
TTITLE12=The Hangover
EXTD=
EXTT0=
EXTT1=
EXTT2=
EXTT3=
EXTT4=
EXTT5=
EXTT6=
EXTT7=
EXTT8=
EXTT9=
EXTT10=
EXTT11=
EXTT12=
PLAYORDER=
